<svg width="22" height="24" viewBox="0 0 22 24" fill="none" xmlns="http://www.w3.org/2000/svg">
<g clip-path="url(#clip0_12_151)">
<path d="M2.75 6H4.58333M4.58333 6H19.25M4.58333 6V20C4.58333 20.5304 4.77649 21.0391 5.1203 21.4142C5.46412 21.7893 5.93044 22 6.41667 22H15.5833C16.0696 22 16.5359 21.7893 16.8797 21.4142C17.2235 21.0391 17.4167 20.5304 17.4167 20V6M7.33333 6V4C7.33333 3.46957 7.52649 2.96086 7.8703 2.58579C8.21412 2.21071 8.68044 2 9.16667 2H12.8333C13.3196 2 13.7859 2.21071 14.1297 2.58579C14.4735 2.96086 14.6667 3.46957 14.6667 4V6" stroke="white" stroke-width="4" stroke-linecap="round" stroke-linejoin="round"/>
</g>
<defs>
<clipPath id="clip0_12_151">
<rect width="22" height="24" fill="white"/>
</clipPath>
</defs>
</svg>
